<?xml version="1.0" encoding="UTF-8"?>
<svg width="500pt" height="500pt" version="1.1" viewBox="0 0 500 500" xmlns="http://www.w3.org/2000/svg" xmlns:inkpad="http://taptrix.com/inkpad/svg_extensions">
 <g transform="scale(.38462 .55556)" fill="#2bb2dc" inkpad:layerName="Ebene 1">
  <path d="m0 0h1300v900h-1300v-900z" fill="#2bb2dc"/>
 </g>
 <path d="m61.172 131.13c-1.1532-4e-3 -2.0897 0.92809-2.0937 2.0812l-3.9117 232.78c-0.05106 3.0387 2.1592 4.8613 5.2398 4.8653l381.61 1.2203c1.1539 4e-3 2.096-0.92735 2.1-2.0812l0.75312-235.55c0.20068-3.0019-3.2674-5.3058-5.2867-5.2952z" fill="#8c8c8c"/>
 <g transform="matrix(.73968 .0023658 -.0023658 .73968 -442.46 -100.08)">
  <path d="m677.53 306.09h515.91c1.56 0 2.83 1.264 2.83 2.823v318.44c0 1.56-1.27 2.824-2.83 2.824h-515.91c-1.559 0-2.823-1.264-2.823-2.824v-318.44c0-1.559 1.264-2.823 2.823-2.823z" fill="#ebeae5"/>
  <path d="m1193.4 630.18-258.89-195.27-257.02 195.27h515.91z" fill="#f5f4ef"/>
  <path d="m677.53 306.09 257.02 194.12 258.89-194.12h-515.91z" fill="#fff"/>
 </g>
</svg>
